<svg width="52" height="65" viewBox="0 0 52 65" fill="none" xmlns="http://www.w3.org/2000/svg">
<path d="M51.507 53.6019L48.6043 17.0248C48.4235 14.6682 46.4304 12.8223 44.0671 12.8223H38.3336V12.5646C38.3336 5.63634 32.6973 0 25.7692 0C18.8411 0 13.2048 5.63634 13.2048 12.5644V12.8221H7.47131C5.10782 12.8221 3.11479 14.668 2.93451 17.0197L0.0307128 53.6068C-0.193994 56.5363 0.822266 59.4528 2.81873 61.6082C4.8152 63.7636 7.64536 65 10.5834 65H40.9547C43.8926 65 46.7229 63.7637 48.7194 61.6082C50.7157 59.4527 51.732 56.5363 51.507 53.6019ZM17.012 12.5644C17.012 7.73576 20.9405 3.80732 25.7691 3.80732C30.5976 3.80732 34.5262 7.73589 34.5262 12.5644V12.8221H17.012V12.5644ZM45.9262 59.0211C44.629 60.4214 42.8636 61.1927 40.9547 61.1927H10.5836C8.6747 61.1927 6.90929 60.4214 5.61208 59.0211C4.315 57.6207 3.681 55.8012 3.82674 53.903L6.73016 17.3158C6.75961 16.9308 7.08512 16.6295 7.47118 16.6295H13.2046V21.3185C13.2046 22.3698 14.057 23.2221 15.1083 23.2221C16.1596 23.2221 17.012 22.3698 17.012 21.3185V16.6295H34.5263V21.3185C34.5263 22.3698 35.3787 23.2221 36.43 23.2221C37.4813 23.2221 38.3336 22.3698 38.3336 21.3185V16.6295H44.0671C44.4531 16.6295 44.7785 16.9308 44.8085 17.3208L47.7113 53.8979C47.8573 55.8012 47.2231 57.6206 45.9262 59.0211Z" fill="#2D2D2D"/>
</svg>
